<svg xmlns="http://www.w3.org/2000/svg" fill="none" viewBox="0 0 48 48">
  <path fill="#000" d="M24 10c-6.5 0-11 4.7-11 10.8 0 4.5 2.4 8.1 6.1 9.4.1 0 .2-.1.2-.3l.4-1.6c.1-.3 0-.4-.2-.6-.9-1.1-1.5-2.5-1.5-4.5 0-5.8 4.3-11 11.2-11 6.1 0 9.5 3.7 9.5 8.7 0 6.5-2.9 12-7.2 12-2.4 0-4.2-2-3.6-4.4.7-2.9 2-6 2-8.1 0-1.9-1-3.5-3.1-3.5-2.5 0-4.5 2.6-4.5 6 0 2.2.7 3.7.7 3.7l-2.8 11.9c-.1.4.1.8.5 1 .2.1.4.1.6 0l4.1-1.8c.3-.1.4-.4.3-.7-.1-.3-.2-.7-.2-1.1 0-.3 0-.6.1-.9l1.3-5.5c.6 1.2 2.4 2.2 4.3 2.2 5.7 0 9.5-5.2 9.5-12.1C35.5 14.8 30.7 10 24 10Z"/>
  <circle cx="24" cy="24" r="23.5" stroke="#000"/>
</svg>
